<?xml version="1.0" encoding="UTF-8" standalone="no"?>
<svg xmlns="http://www.w3.org/2000/svg" height="96" width="96" version="1.1" viewBox="0 0 96 96">
 <rect style="color:#000000" height="96" width="0" y="0" x="0" fill="none"/>
 <path d="m47.99 10.28c-9.914 0.0118-18.4 7.118-20.15 16.88h40.32c-1.75-9.77-10.25-16.88-20.17-16.88zm-30.34 16.91c-0.4596 0-0.9231 0.1806-1.275 0.5323l-2.307 2.307c-0.7051 0.7051-0.7051 1.839 0 2.543l8.214 8.214c-0.8147 2.823-1.322 5.759-1.504 8.762h-8.928c-0.9958 0-1.794 0.7973-1.794 1.794v3.265c0 0.9958 0.7974 1.794 1.794 1.794h9.05c0.416 3.893 1.358 7.577 2.759 10.93l-10.11 10.11c-0.7034 0.7051-0.7034 1.838 0 2.543l2.307 2.314c0.7051 0.7051 1.839 0.7051 2.543 0l8.667-8.672c4.304 6.29 10.43 10.63 17.39 11.74v-35.42c0-0.9958 0.8052-1.801 1.801-1.801h3.31c0.9959 0 1.801 0.8052 1.801 1.801v35.46c7.07-1.07 13.29-5.48 17.63-11.87l8.768 8.779c0.7051 0.7051 1.838 0.7051 2.543 0l2.307-2.314c0.7051-0.7034 0.7051-1.838 0-2.543l-10.23-10.24c1.373-3.321 2.294-6.961 2.705-10.81h9.056c0.9958 0 1.794-0.7973 1.794-1.794v-3.265c0-0.9959-0.7974-1.794-1.794-1.794h-8.94c-0.17-2.96-0.66-5.85-1.45-8.64l8.337-8.337c0.7051-0.7051 0.7051-1.839 0-2.543l-2.307-2.307c-0.7051-0.7051-1.838-0.7051-2.543 0l-6.581 6.581h-45.18l-6.581-6.581c-0.3522-0.3522-0.808-0.5323-1.269-0.5323z" stroke="#808080" stroke-linecap="round" fill="#808080"/>
</svg>
