<?xml version="1.0" encoding="UTF-8" standalone="no"?>
<svg xmlns="http://www.w3.org/2000/svg" height="96" width="96" version="1.1" viewBox="0 0 96 96">
 <path fill="#808080" d="m47.99 14.03a33.97 33.97 0 0 0 -33.97 33.97 33.97 33.97 0 0 0 33.97 33.97 33.97 33.97 0 0 0 33.97 -33.97 33.97 33.97 0 0 0 -33.97 -33.97zm-11.71 18.38c1.32 0 2.45 0.47 3.39 1.41 0.96 0.91 1.44 2.04 1.44 3.39 0 1.33-0.48 2.47-1.44 3.43-0.94 0.93-2.07 1.4-3.39 1.4-1.35 0-2.49-0.47-3.43-1.4-0.91-0.96-1.37-2.1-1.37-3.43 0-1.35 0.47-2.48 1.4-3.39 0.94-0.94 2.07-1.41 3.4-1.41zm23.39 0c1.32 0 2.45 0.47 3.39 1.41 0.96 0.91 1.44 2.04 1.44 3.39 0 1.33-0.48 2.47-1.44 3.43-0.94 0.93-2.07 1.4-3.39 1.4-1.35 0-2.49-0.47-3.43-1.4-0.91-0.96-1.37-2.1-1.37-3.43 0-1.35 0.47-2.48 1.41-3.39 0.93-0.94 2.06-1.41 3.39-1.41zm-31.98 26.76h40.63v4h-40.63v-4z"/>
 <rect style="color:#000000" height="96" width="96" y="0" x="0" fill="none"/>
</svg>
