<?xml version="1.0" encoding="UTF-8" standalone="no"?>
<svg xmlns="http://www.w3.org/2000/svg" height="96" width="96" version="1.1" viewBox="0 0 96 96">
 <g stroke="#808080" stroke-width="2" fill="none">
  <path d="m64.59 70.15a12.06 11.54 0 0 1 -4.788 4.08c0.2166 2.233 1.944 3.932 4.126 3.932 2.334 0 4.149-1.945 4.149-4.408v-3.107a12.06 11.54 0 0 1 -3.487 -0.497z"/>
  <path d="m52.3 75.24a12.06 11.54 0 0 1 -7.037 4.75v1.547c0 3.63 2.463 6.483 5.445 6.483s5.446-2.852 5.446-6.483v-6.229a12.06 11.54 0 0 1 -1.682 0.1288 12.06 11.54 0 0 1 -2.171 -0.1977z"/>
  <path d="m32.27 75.25a12.06 11.54 0 0 1 -2.177 0.1956 12.06 11.54 0 0 1 -1.689 -0.1187v6.218c0 3.63 2.464 6.483 5.446 6.483s5.445-2.852 5.445-6.483v-1.548a12.06 11.54 0 0 1 -7.025 -4.748z"/>
  <path d="m79.1 67.22a12.06 11.54 0 0 1 -2.718 0.3088 12.06 11.54 0 0 1 -0.07139 -0.0034 12.06 11.54 0 0 1 -6.805 3.024v5.022c0 3.241 2.204 5.834 4.797 5.834s4.797-2.593 4.797-5.834z"/>
  <path d="m42.28 10.23a15.56 14.91 0 0 0 -14.51 9.567 11.41 10.89 0 0 0 -5.331 -1.269 11.41 10.89 0 0 0 -11.41 10.89 11.41 10.89 0 0 0 5.028 9.017 18.8 18.02 0 0 0 -5.417 12.64 18.8 18.02 0 0 0 7.514 14.38 12.06 11.54 0 0 0 11.93 9.99 12.06 11.54 0 0 0 2.177 -0.1956 12.06 11.54 0 0 0 10.01 5.122 12.06 11.54 0 0 0 10.02 -5.124 12.06 11.54 0 0 0 2.171 0.1977 12.06 11.54 0 0 0 10.12 -5.294 12.06 11.54 0 0 0 3.488 0.497 12.06 11.54 0 0 0 8.227 -3.115 12.06 11.54 0 0 0 0.07139 0.0034 12.06 11.54 0 0 0 12.07 -11.56 12.06 11.54 0 0 0 -3.5 -8.11 12.06 11.54 0 0 0 0.65 -3.68 12.06 11.54 0 0 0 -12.06 -11.54 12.06 11.54 0 0 0 -0.54 0.01 11.41 10.89 0 0 0 0.54 -3.25 11.41 10.89 0 0 0 -11.41 -10.9 11.41 10.89 0 0 0 -5.32 1.27 15.56 14.91 0 0 0 -14.52 -9.56z"/>
  <path d="m31.57 35.93a11.41 10.89 0 0 1 -0.551 0.6306 11.41 10.89 0 0 1 -0.2432 0.2648 11.41 10.89 0 0 1 -0.6978 0.6529 11.41 10.89 0 0 1 -0.07353 0.0656 11.41 10.89 0 0 1 -0.6831 0.5327 11.41 10.89 0 0 1 -0.01006 0.0079c-0.000156 0.000003-0.000468-0.000003-0.000625 0a11.41 10.89 0 0 1 -6.868 2.224 11.41 10.89 0 0 1 -3.036 -0.3936c-0.1587 0.08248-0.3123 0.1677-0.4595 0.256-1.686 2.334-2.463 6.223-2.334 11.02 2.951 0.07197 5.619-0.09676 7.856-0.5263 2.817 9.268 9.715 15.83 17.82 15.83 8.058 0 14.93-6.487 17.77-15.67 2.236 0.4358 4.936 0.6425 8.008 0.6425l0.0076-0.01251c0.1297-4.797-0.6482-8.817-2.334-11.15-0.2229-0.1284-0.4655-0.2502-0.7194-0.3679a11.41 10.89 0 0 1 -2.912 0.3744 11.41 10.89 0 0 1 -8.996 -4.223 11.41 10.89 0 0 1 -0.126 -0.1452 15.56 14.91 0 0 1 -0.9452 0.7792 15.56 14.91 0 0 1 -0.6114 0.4461 15.56 14.91 0 0 1 -0.6428 0.4314 15.56 14.91 0 0 1 -0.6596 0.3881 15.56 14.91 0 0 1 -0.6773 0.3637 15.56 14.91 0 0 1 -0.7023 0.3258 15.56 14.91 0 0 1 -0.7103 0.2962 15.56 14.91 0 0 1 -0.7328 0.2569 15.56 14.91 0 0 1 -0.7353 0.2261 15.56 14.91 0 0 1 -0.7582 0.1861 15.56 14.91 0 0 1 -0.7557 0.1547 15.56 14.91 0 0 1 -0.7719 0.1123 15.56 14.91 0 0 1 -0.7691 0.08207 15.56 14.91 0 0 1 -1.243 0.06041 15.56 14.91 0 0 1 -1.24 -0.06163 15.56 14.91 0 0 1 -0.7746 -0.08329 15.56 14.91 0 0 1 -0.7652 -0.112 15.56 14.91 0 0 1 -0.7637 -0.1571 15.56 14.91 0 0 1 -0.7499 -0.1849 15.56 14.91 0 0 1 -0.738 -0.2276 15.56 14.91 0 0 1 -0.7335 -0.2581 15.56 14.91 0 0 1 -0.7124 -0.2981 15.56 14.91 0 0 1 -0.6935 -0.3225 15.56 14.91 0 0 1 -0.6852 -0.3686 15.56 14.91 0 0 1 -0.6572 -0.3878 15.56 14.91 0 0 1 -0.637 -0.4281 15.56 14.91 0 0 1 -0.6187 -0.4525 15.56 14.91 0 0 1 -0.9403 -0.7771z"/>
  <path d="m31.91 40.05c2.463 0 4.538 1.945 4.538 4.279s-1.945 4.279-4.538 4.279c-2.463 0-4.538-1.945-4.538-4.279 0-2.463 2.074-4.279 4.538-4.279"/>
  <ellipse rx="4.538" ry="4.279" cy="44.2" cx="52.65"/>
 </g>
 <g stroke="#808080" fill="none">
  <path d="m63.93 78.43c2.334 0 4.149-1.945 4.149-4.408h-8.168c0 2.334 1.815 4.408 4.019 4.408"/>
  <path d="m50.71 88.02c2.982 0 5.445-2.852 5.445-6.483h-11.02c0.1297 3.63 2.593 6.483 5.575 6.483"/>
  <path d="m33.86 88.02c2.982 0 5.445-2.852 5.445-6.483h-11.02c0.1296 3.63 2.593 6.483 5.575 6.483"/>
  <path d="m74.3 81.66c2.593 0 4.797-2.593 4.797-5.834h-9.594c0 3.112 2.074 5.834 4.797 5.834"/>
  <path d="m61.47 41.49c-0.0098 2.313-0.2568 4.552-0.7121 6.679 1.179 0.2005 2.558 0.3011 4.072 0.3011 0.1297-2.723-0.3891-4.927-1.297-6.223-0.5455-0.2975-1.243-0.5564-2.063-0.7563z"/>
  <path d="m23.11 41.32c-0.8114 0.1942-1.517 0.4603-2.097 0.7984-0.9076 1.297-1.426 3.501-1.297 6.223 1.519 0.06603 2.902-0.0035 4.1-0.2065-0.4607-2.162-0.7075-4.44-0.7075-6.793 0-0.0075 0.000313-0.01455 0.000313-0.02197z"/>
  <path d="m32.69 55.99c4.668 0.7779 4.927 0.7779 7.131 5.186z"/>
  <path d="m51.88 55.99c-4.668 0.7779-4.927 0.7779-7.131 5.186z"/>
 </g>
</svg>
