<?xml version="1.0" encoding="UTF-8" standalone="no"?>
<svg xmlns="http://www.w3.org/2000/svg" height="96" width="96" version="1.1" viewBox="0 0 96 96">
 <path fill="#808080" d="m47.99 14.03a33.97 33.97 0 0 0 -33.97 33.97 33.97 33.97 0 0 0 33.97 33.97 33.97 33.97 0 0 0 33.97 -33.97 33.97 33.97 0 0 0 -33.97 -33.97zm-11.71 18.38c1.32 0 2.45 0.47 3.39 1.41 0.96 0.91 1.44 2.04 1.44 3.39 0 1.33-0.48 2.47-1.44 3.43-0.94 0.93-2.07 1.4-3.39 1.4-1.35 0-2.49-0.47-3.43-1.4-0.91-0.96-1.37-2.1-1.37-3.43 0-1.35 0.47-2.48 1.4-3.39 0.94-0.94 2.07-1.41 3.4-1.41zm23.39 0c1.32 0 2.45 0.47 3.39 1.41 0.96 0.91 1.44 2.04 1.44 3.39 0 1.33-0.48 2.47-1.44 3.43-0.94 0.93-2.07 1.4-3.39 1.4-1.35 0-2.49-0.47-3.43-1.4-0.91-0.96-1.37-2.1-1.37-3.43 0-1.35 0.47-2.48 1.41-3.39 0.93-0.94 2.06-1.41 3.39-1.41zm6.87 23.6a2 2 0 0 1 1.55 3.21s-7.78 10.78-20.03 10.78c-12.22 0-20.19-10.54-20.19-10.54a2 2 0 1 1 3.16 -2.45s7.17 8.99 17.03 8.99c9.85 0 16.81-9.16 16.81-9.16a2 2 0 0 1 1.67 -0.83z"/>
 <rect style="color:#000000" transform="rotate(90)" height="96" width="96" y="-96" x=".000011" fill="none"/>
</svg>
