<?xml version="1.0" encoding="UTF-8" standalone="no"?>
<svg xmlns="http://www.w3.org/2000/svg" height="96" width="96" version="1.1" viewBox="0 0 96 96">
 <rect style="color:#000000" transform="rotate(90)" height="96" width="96" y="-96" x=".000011" fill="none"/>
 <path d="m29.45 58.23s7.566 9.766 18.61 9.766c11.05 0 18.42-9.964 18.42-9.964" stroke="#808080" stroke-linecap="round" stroke-width="4" fill="none"/>
 <path d="m54.87 37.21q0-2.021 1.405-3.392 1.405-1.405 3.392-1.405t3.392 1.405q1.439 1.37 1.439 3.392 0 1.987-1.439 3.426-1.405 1.405-3.392 1.405-2.021 0-3.426-1.405-1.37-1.439-1.37-3.426z" fill="#808080"/>
 <path d="m31.48 37.21q0-2.021 1.405-3.392 1.405-1.405 3.392-1.405t3.392 1.405q1.439 1.37 1.439 3.392 0 1.987-1.439 3.426-1.405 1.405-3.392 1.405-2.021 0-3.426-1.405-1.37-1.439-1.37-3.426z" fill="#808080"/>
 <ellipse rx="33.97" ry="33.97" stroke="#808080" cy="48" cx="47.99" stroke-width="4" fill="none"/>
</svg>
