<?xml version="1.0" encoding="UTF-8" standalone="no"?>
<svg xmlns="http://www.w3.org/2000/svg" height="96" width="96" version="1.1" viewBox="0 0 96 96">
 <rect style="color:#000000" height="96" width="96" y="0" x="0" fill="none"/>
 <path d="m54.87 37.21q0-2.021 1.405-3.392 1.405-1.405 3.392-1.405t3.392 1.405q1.439 1.37 1.439 3.392 0 1.987-1.439 3.426-1.405 1.405-3.392 1.405-2.021 0-3.426-1.405-1.37-1.439-1.37-3.426z" fill="#808080"/>
 <path d="m31.48 37.21q0-2.021 1.405-3.392 1.405-1.405 3.392-1.405t3.392 1.405q1.439 1.37 1.439 3.392 0 1.987-1.439 3.426-1.405 1.405-3.392 1.405-2.021 0-3.426-1.405-1.37-1.439-1.37-3.426z" fill="#808080"/>
 <ellipse rx="33.97" ry="33.97" stroke="#808080" stroke-dashoffset="29.48" cy="48" cx="47.99" stroke-width="4" fill="none"/>
 <rect height="4.004" width="40.63" y="59.17" x="27.69" fill="#808080"/>
</svg>
