<?xml version="1.0" encoding="UTF-8" standalone="no"?>
<svg style="enable-background:new" xmlns="http://www.w3.org/2000/svg" height="1024" width="1024" version="1.1" xmlns:xlink="http://www.w3.org/1999/xlink" viewBox="0 0 1024 1024">
 <g fill-opacity=".08118" transform="matrix(.6592 0 0 .6592 342.6 -22.23)" stroke="#00f" display="none" fill="#00f">
  <path d="m166 576.4h179.9c145.3 0 166 20.74 166 165.9v144.2c0 145.2-20.76 165.9-166 165.9h-179.9c-145.2 0-166-20-166-165.6v-144.2c0-145.1 20.76-165.9 166-165.9z" display="inline"/>
  <circle style="color:#000000;enable-background:accumulate" cx="256" transform="matrix(1.2 0 0 1.2 -51.2 528.8)" display="inline" cy="238" r="120" stroke-width=".8333"/>
  <rect stroke-linejoin="round" style="color:#000000;enable-background:accumulate" display="inline" height="272" width="272" stroke-linecap="round" y="678.4" x="120"/>
  <rect stroke-linejoin="round" style="color:#000000;enable-background:accumulate" display="inline" height="240" width="304" stroke-linecap="round" y="694.4" x="104"/>
  <rect stroke-linejoin="round" style="color:#000000;enable-background:accumulate" display="inline" height="304" width="240" stroke-linecap="round" y="662.4" x="136"/>
 </g>
 <g transform="matrix(.8359 0 0 .8359 298 298)">
  <path style="enable-background:new" d="m227.4 103.5-1.09 2.317c-9.976 21.14-19.46 42.84-28.87 64.54-9.403 21.7-19.18 45.06-28.87 69.04-2.699 6.885-5.443 14.06-8.169 21.11h61.41c4.977-13.14 9.872-25.89 14.43-37.86 7.022-17.83 13.27-32.26 18.93-45.61 5.418 12.9 10.9 26.69 17.84 44.53 4.756 12.23 9.608 25.43 14.57 38.94h62.77c-2.874-7.056-5.798-14.23-8.577-21.11-9.404-23.99-18.23-47.32-27.64-69.04-9.405-21.7-19.03-43.41-29-64.54l-1.2-2.3zm-102.1 170.2c-19.31 0-34.85 15.55-34.85 34.86s15.54 34.85 34.85 34.85h261.4c19.31 0 34.85-15.54 34.85-34.85s-15.54-34.86-34.85-34.86zm0 17.43h152.5c9.656 0 17.43 7.779 17.43 17.43 0 9.656-7.772 17.43-17.43 17.43h-152.5c-9.656 0-17.43-7.771-17.43-17.43 0-9.655 7.772-17.43 17.43-17.43zm-0.5375 65.5c-5.221 14.84-10.59 30.27-16.21 46.29l-2.2 5.6h64.41l13.34-36.76c1.828-5.007 3.704-10.05 5.451-15.11h-64.27c-0.1821 0-0.3558 0.001-0.5375 0zm195.1 0c1.726 5.131 3.471 10.18 5.314 15.11 4.251 11.36 8.288 22.94 12.26 34.58l0.9463 2.18h67.95l-2.309-5.58c-5.627-16.05-11.18-31.47-16.62-46.29-0.227 0.003-0.446 0-0.6738 0z" fill="#f7f7f7"/>
  <g fill-opacity=".08118" stroke="#00f" display="none" fill="#00f">
   <path style="enable-background:new" d="m166.1 18h179.9c145.3 0 166.1 20.74 166.1 165.9v144.2c0 145.2-20.76 165.9-166.1 165.9h-179.9c-145.3 0-166.1-20.7-166.1-165.9v-144.2c-0.0000075-145.2 20.76-165.9 166.1-165.9z" display="inline"/>
   <circle style="color:#000000;enable-background:accumulate" display="inline" cy="256" cx="256" r="144"/>
   <rect stroke-linejoin="round" style="color:#000000;enable-background:accumulate" display="inline" height="272" width="272" stroke-linecap="round" y="120" x="120"/>
   <rect stroke-linejoin="round" style="color:#000000;enable-background:accumulate" display="inline" height="240" width="304" stroke-linecap="round" y="136" x="104"/>
   <rect stroke-linejoin="round" style="color:#000000;enable-background:accumulate" display="inline" height="304" width="240" stroke-linecap="round" y="104" x="136"/>
  </g>
 </g>
</svg>
