<?xml version="1.0" encoding="UTF-8" standalone="no"?>
<svg xmlns="http://www.w3.org/2000/svg" height="96" width="96" version="1.1" viewBox="0 0 96 96">
 <rect style="color:#000000" height="96" width="96" y="0" x="0" fill="none"/>
 <path d="m30.24 12.02v0.01c0.06 0 0.12 0 0.17 0.01 0.11 0 0.22-0.01 0.33 0 4.27 0.11 8.18 1.68 11.73 4.08 0.07 0.05 0.14 0.12 0.21 0.17 0.48 0.37 0.96 0.75 1.42 1.16 0.12 0.11 0.25 0.22 0.37 0.34 0.13 0.12 0.26 0.23 0.38 0.35 0.16 0.15 0.29 0.32 0.44 0.48 0.22 0.21 0.44 0.41 0.65 0.64 0.13 0.15 0.25 0.31 0.38 0.46 0.12 0.14 0.23 0.27 0.34 0.41 0.17 0.2 0.34 0.4 0.5 0.6 0.15 0.21 0.3 0.41 0.45 0.62 0.12 0.16 0.22 0.32 0.33 0.48 0.02 0.03 0.05 0.06 0.07 0.09 0.02-0.03 0.05-0.06 0.07-0.09 0.11-0.16 0.22-0.32 0.33-0.48 0.15-0.21 0.3-0.41 0.45-0.62 0.16-0.2 0.34-0.4 0.5-0.6 0.11-0.14 0.23-0.27 0.34-0.41 0.13-0.15 0.25-0.31 0.39-0.46 0.2-0.23 0.43-0.43 0.64-0.64 0.15-0.16 0.28-0.33 0.44-0.48 0.12-0.12 0.25-0.23 0.38-0.35 0.12-0.11 0.25-0.23 0.37-0.34 0.47-0.41 0.95-0.81 1.45-1.18 0.06-0.04 0.12-0.1 0.18-0.15 0.17-0.12 0.35-0.23 0.52-0.35l0.36-0.24c4.1-2.77 8.93-3.74 13.57-3.4h0.05c0.24 0.03 0.49 0.05 0.73 0.08 0.17 0.02 0.33 0.06 0.49 0.09 0.1 0.01 0.19 0.03 0.29 0.05 0.32 0.05 0.63 0.11 0.94 0.18 0.08 0.02 0.16 0.03 0.23 0.05l0.17 0.04c0.03 0.01 0.06 0.01 0.09 0.02 1.05 0.26 2.08 0.6 3.08 1.02 2.91 1.24 5.55 3.14 7.73 5.54v-0.01c0.68 0.74 1.3 1.53 1.88 2.36 0.36 0.51 0.69 1.03 1 1.57l0.12 0.21c0.12 0.2 0.24 0.4 0.35 0.61 0.15 0.28 0.28 0.56 0.41 0.84 2.934 5.99 3.113 12.81 1.17 19.12-0.079 0.23-0.175 0.46-0.261 0.69-0.116 0.31-0.228 0.62-0.356 0.92-0.031 0.08-0.057 0.16-0.09 0.23-0.733 1.69-1.653 3.29-2.733 4.75-0.36 0.49-0.74 0.95-1.14 1.41-0.18 0.21-0.36 0.42-0.54 0.62l-0.01 0.01-10.17 10.92-6.85 7.35h0.01l-15.6 16.75c-0.13 0.12-0.16 0.16-0.31 0.25-0.11 0.06-0.22 0.11-0.34 0.14-0.11 0.03-0.22 0.04-0.34 0.04-0.11 0-0.22-0.01-0.33-0.04s-0.22-0.08-0.33-0.14c-0.15-0.09-0.18-0.13-0.31-0.25l-15.6-16.75-17.02-18.27c0-0.01 0-0.01-0.01-0.01-0.17-0.2-0.35-0.4-0.52-0.6l-0.01-0.02h-0.01c-0.39-0.46-0.78-0.92-1.14-1.41-1.08-1.46-2-3.05-2.73-4.75-0.04-0.08-0.07-0.17-0.1-0.26-0.07-0.17-0.14-0.35-0.2-0.52-2.55-6.5-2.15-13.62 0.62-19.9 0.05-0.09 0.1-0.19 0.14-0.28 0.14-0.28 0.27-0.56 0.42-0.84 0.1-0.2 0.22-0.39 0.33-0.59 0.05-0.08 0.1-0.17 0.15-0.25 0.31-0.53 0.64-1.05 0.99-1.55 0.58-0.83 1.2-1.62 1.87-2.36l0.01 0.01c2.18-2.4 4.82-4.3 7.73-5.54 1-0.42 2.03-0.76 3.08-1.02 0.03-0.01 0.06-0.02 0.09-0.03l0.16-0.04c0.08-0.01 0.16-0.02 0.24-0.04 0.31-0.07 0.62-0.13 0.93-0.19 0.1-0.01 0.2-0.03 0.3-0.05 0.16-0.02 0.32-0.06 0.48-0.08 0.25-0.03 0.49-0.06 0.74-0.08h0.04c0.44-0.05 0.88-0.07 1.32-0.09h0.05c0.13-0.01 0.26-0.02 0.38-0.02zm0.22 4.05c-0.19 0.01-0.38 0.01-0.57 0.02-0.54 0.02-1.07 0.06-1.61 0.13-0.34 0.04-0.68 0.11-1.01 0.17-0.11 0.02-0.21 0.03-0.31 0.06-0.05 0.01-0.1 0.01-0.14 0.02-1.28 0.29-2.52 0.71-3.72 1.27-1.93 0.91-3.72 2.17-5.26 3.72-0.53 0.53-1.02 1.1-1.49 1.69-0.31 0.39-0.62 0.78-0.9 1.2-0.18 0.28-0.35 0.56-0.53 0.85-3.55 5.78-3.82 12.86-1.45 19.14 0.05 0.12 0.11 0.23 0.16 0.35 0.22 0.51 0.47 1.02 0.73 1.51 0.11 0.2 0.22 0.41 0.34 0.61 0.3 0.52 0.62 1.02 0.96 1.51l0.06 0.09c0.08 0.11 0.17 0.22 0.26 0.34 0.3 0.4 0.62 0.79 0.95 1.17 0.14 0.17 0.28 0.33 0.43 0.49l0.04 0.05c0.71 0.78 1.44 1.55 2.16 2.33l7.65 8.2 0.12 0.16 0.02 0.02c2.16 2.32 4.31 4.65 6.48 6.96l0.01-0.01 11.45 12.3c0.91 0.97 1.82 1.94 2.73 2.91 0.9-0.97 1.81-1.94 2.72-2.91l11.45-12.3 0.02 0.01c2.16-2.31 4.31-4.64 6.48-6.96 0-0.01 0.01-0.01 0.01-0.02l0.12-0.16 7.65-8.2c0.72-0.78 1.45-1.56 2.17-2.34l0.03-0.04c0.14-0.15 0.28-0.31 0.41-0.47 0.34-0.39 0.66-0.78 0.97-1.2 0.09-0.11 0.18-0.22 0.26-0.34l0.06-0.09c0.34-0.48 0.66-0.99 0.96-1.51 0.12-0.2 0.23-0.41 0.34-0.61 0.25-0.47 0.49-0.94 0.7-1.43 2.8-6.41 2.17-13.7-1.28-19.6-0.17-0.27-0.33-0.55-0.51-0.81-0.28-0.42-0.59-0.81-0.9-1.21-0.47-0.59-0.96-1.16-1.49-1.69-1.54-1.54-3.33-2.81-5.26-3.72-1.19-0.56-2.44-0.98-3.72-1.26-0.04-0.01-0.09-0.02-0.13-0.03-0.11-0.02-0.21-0.04-0.31-0.05-0.34-0.07-0.68-0.13-1.02-0.17-5.27-0.64-10.52 1.04-14.54 4.72h-0.01c-0.08 0.07-0.15 0.15-0.23 0.22-0.35 0.33-0.68 0.69-1.01 1.05-0.14 0.15-0.28 0.3-0.42 0.46-0.29 0.35-0.57 0.72-0.84 1.09-0.13 0.17-0.26 0.34-0.39 0.52-0.16 0.25-0.32 0.5-0.48 0.76-0.21 0.34-0.43 0.69-0.62 1.05-0.02 0.02-0.03 0.04-0.04 0.06-0.04 0.06-0.07 0.12-0.12 0.18-0.04 0.05-0.08 0.1-0.13 0.15-0.03 0.02-0.06 0.04-0.08 0.06-0.03 0.02-0.05 0.06-0.08 0.08s-0.07 0.04-0.1 0.05c-0.03 0.02-0.04 0.04-0.07 0.05-0.02 0.01-0.05 0.01-0.07 0.02-0.06 0.03-0.11 0.05-0.17 0.06-0.06 0.02-0.11 0.03-0.17 0.04-0.05 0.01-0.11 0.01-0.17 0.01s-0.11 0-0.17-0.01-0.11-0.02-0.17-0.04c-0.06-0.01-0.11-0.03-0.17-0.06-0.02-0.01-0.05-0.01-0.07-0.02-0.03-0.01-0.04-0.04-0.07-0.05-0.03-0.02-0.07-0.03-0.1-0.05s-0.05-0.06-0.08-0.08-0.06-0.04-0.08-0.06c-0.04-0.05-0.09-0.1-0.14-0.15-0.04-0.06-0.07-0.12-0.11-0.18-0.2-0.38-0.44-0.75-0.66-1.11-0.16-0.26-0.32-0.51-0.48-0.76-0.13-0.18-0.26-0.35-0.39-0.52-0.27-0.37-0.55-0.74-0.84-1.09-0.14-0.16-0.28-0.31-0.43-0.46-0.32-0.36-0.65-0.72-1-1.05-0.08-0.07-0.15-0.15-0.23-0.22-3.19-2.9-6.89-4.41-10.95-4.82-0.47-0.04-0.94-0.05-1.41-0.05z" fill-rule="evenodd" clip-rule="evenodd" stroke-width="5.409" fill="#808080"/>
</svg>
