<?xml version="1.0" encoding="UTF-8" standalone="no"?>
<svg xmlns="http://www.w3.org/2000/svg" height="96" width="96" version="1.1" viewBox="0 0 96 96">
 <rect style="color:#000000" height="96" width="96" y="0" x="0" fill="none"/>
 <g fill="#808080">
  <path d="m65.79 11.97v0.006c-0.0569 0.001-0.1149 0.006-0.1719 0.0117-0.1097 0.001-0.2185-0.003-0.3281 0-4.271 0.1143-8.18 1.681-11.73 4.088-0.0704 0.0504-0.1352 0.1134-0.2051 0.1661-0.4887 0.3661-0.9619 0.7536-1.422 1.161-0.1258 0.1115-0.2498 0.2256-0.373 0.34-0.1268 0.1178-0.258 0.2292-0.3828 0.3498-0.1556 0.1508-0.2905 0.3234-0.4414 0.4787-0.2109 0.2164-0.4376 0.4155-0.6406 0.6409-0.1347 0.1497-0.2542 0.3114-0.3848 0.465-0.1148 0.1346-0.2276 0.2704-0.3398 0.4084-0.165 0.2024-0.3402 0.3963-0.5 0.6038-0.1535 0.203-0.3038 0.4066-0.4531 0.6135-0.1123 0.1592-0.2195 0.3217-0.3281 0.4826-0.0208 0.0337-0.0468 0.0612-0.0703 0.0938-0.0208-0.0337-0.0479-0.0618-0.0684-0.0938-0.1091-0.1609-0.2159-0.3228-0.3281-0.4826-0.1493-0.2063-0.2996-0.41-0.4531-0.6135-0.1598-0.2075-0.335-0.4014-0.5-0.6038-0.1123-0.1373-0.225-0.2732-0.3398-0.4084-0.1305-0.1536-0.2501-0.3153-0.3848-0.465-0.2026-0.2254-0.4297-0.4245-0.6406-0.6409-0.1514-0.1553-0.2864-0.3279-0.4414-0.4787-0.1247-0.1212-0.2554-0.232-0.3828-0.3498-0.1221-0.1133-0.2463-0.2256-0.3711-0.3361-0.4678-0.4144-0.9478-0.809-1.445-1.18-0.0637-0.045-0.1232-0.1034-0.1875-0.1504-0.1697-0.124-0.3467-0.2348-0.5195-0.3537-0.117-0.0802-0.233-0.1624-0.3516-0.2403-4.105-2.775-8.932-3.741-13.58-3.4l-0.002-0.002c-0.006 0.00053-0.011-0.00054-0.0156 0-0.011 0.00079-0.0149 0.002-0.0254 0.004-0.2459 0.0223-0.491 0.0451-0.7363 0.0782-0.1618 0.0223-0.323 0.0577-0.4844 0.084-0.0992 0.0168-0.1963 0.034-0.2949 0.0508-0.3132 0.056-0.6269 0.1156-0.9375 0.1856-0.0777 0.0168-0.156 0.0281-0.2344 0.0449l-0.1621 0.0391c-0.0314 0.0118-0.0611 0.0162-0.0918 0.0274-1.049 0.2618-2.084 0.5969-3.086 1.022-2.907 1.232-5.546 3.137-7.723 5.535l-0.006-0.0117c-0.673 0.7412-1.299 1.532-1.877 2.36-0.3561 0.5108-0.6875 1.039-1.004 1.579-0.0364 0.0673-0.0765 0.1353-0.1152 0.2032-0.1174 0.2046-0.2398 0.4063-0.3516 0.6155-0.1462 0.2736-0.2764 0.5579-0.4121 0.8382-2.932 5.994-3.111 12.81-1.168 19.12 0.0795 0.2338 0.1756 0.4601 0.2617 0.6917 0.1159 0.309 0.2276 0.6209 0.3555 0.9242 0.0314 0.0752 0.0575 0.1535 0.0898 0.2286 0.7309 1.694 1.649 3.291 2.73 4.752 0.3613 0.4889 0.7468 0.9538 1.143 1.411 0.178 0.2058 0.3567 0.4153 0.541 0.6155 0.003 0.003 0.003 0.006 0.006 0.0117l9.92 10.65 49.57-49.59c-0.94-0.4-1.91-0.72-2.9-0.97-0.03-0.01-0.06-0.01-0.09-0.03l-0.17-0.04c-0.07-0.01-0.15-0.02-0.23-0.04-0.31-0.07-0.62-0.13-0.94-0.19-0.09-0.01-0.19-0.03-0.29-0.05-0.1613-0.028-0.3206-0.0616-0.4824-0.084-0.2449-0.0337-0.4924-0.0561-0.7383-0.0782-0.011-0.00084-0.0149 0.00005-0.0254-0.002-0.006-0.00057-0.0111 0.00049-0.0156 0-0.438-0.045-0.8763-0.0736-1.316-0.0899-0.011-0.00043-0.0213-0.004-0.0371-0.004-0.006-0.00022-0.01 0.00023-0.0195 0-0.1264-0.004-0.2526-0.0156-0.3789-0.0156-0.2391-0.001-0.2374-0.001-0.4766 0z"/>
  <path d="m77.6 15.53-50.55 50.53 4.373 4.699-0.004 0.002 15.6 16.75c0.1315 0.1228 0.159 0.1637 0.3125 0.254 0.1044 0.0611 0.2177 0.1045 0.332 0.1348 0.1112 0.028 0.2255 0.0449 0.3398 0.0449 0.1118-0.00067 0.2229-0.0167 0.332-0.0449 0.1144-0.028 0.2257-0.0738 0.3301-0.1348 0.1535-0.0903 0.1848-0.1312 0.3164-0.254l32.62-35.03c0.003-0.003 0.003-0.006 0.006-0.0117 0.1791-0.1946 0.3496-0.3963 0.5234-0.5959l0.0156-0.0176 0.006-0.006c0.3936-0.4542 0.779-0.9182 1.139-1.405 1.082-1.461 2-3.058 2.73-4.752 0.0366-0.0863 0.0674-0.1769 0.1035-0.2638 0.0716-0.1705 0.1318-0.3476 0.1992-0.5197 2.542-6.504 2.144-13.62-0.627-19.9-0.047-0.0953-0.0907-0.1886-0.1367-0.2833-0.1358-0.2798-0.2679-0.564-0.4141-0.8382-0.107-0.1996-0.2237-0.3919-0.3359-0.5881-0.0469-0.0854-0.0968-0.1693-0.1465-0.254-0.3122-0.531-0.6404-1.051-0.9902-1.553-0.5774-0.8287-1.202-1.62-1.875-2.362l-0.006 0.0117c-1.26-1.388-2.679-2.602-4.211-3.624z"/>
  <path d="m86.59 6.57-80 80.03 2.828 2.829 80-80.03z"/>
 </g>
</svg>
